<svg xmlns="http://www.w3.org/2000/svg" width="19.127" height="19.214" viewBox="0 0 19.127 19.214"><g transform="translate(-248.031 -6018.625)"><path d="M103.7,9.517A4.964,4.964,0,0,0,99,14.733l0,.022a4.9,4.9,0,0,0,5.11,4.689l.091-.005a4.972,4.972,0,0,0,4.721-5.211c-.007-.139-.019-.276-.038-.415a5.1,5.1,0,0,0-5.185-4.3m.281,8.161a3.189,3.189,0,1,1,3.181-3.2v.031A3.175,3.175,0,0,1,103.982,17.678Z" transform="translate(153.584 6013.785)" fill="#fff"/><path d="M105.4,8.727A1.177,1.177,0,1,0,106.573,9.9V9.873A1.177,1.177,0,0,0,105.4,8.727" transform="translate(157.309 6013.223)" fill="#fff"/><path d="M115.4,11.774a5.108,5.108,0,0,0-4.867-4.9A5.351,5.351,0,0,0,110,6.786h-8.282c-.546.1-1.108.166-1.648.312a5.1,5.1,0,0,0-3.734,4.44V21.21a9.818,9.818,0,0,0,.25,1.132,4.968,4.968,0,0,0,4.67,3.613c3.082.053,6.163.069,9.247,0a5.024,5.024,0,0,0,4.9-4.851q.128-4.653,0-9.329m-5.314,12.472c-2.809.046-5.626.053-8.435,0a3.445,3.445,0,0,1-3.59-3.3c-.005-.1-.005-.207,0-.31q-.069-4.2,0-8.351a3.461,3.461,0,0,1,3.246-3.664,3.552,3.552,0,0,1,.382,0q4.183-.051,8.351,0a3.486,3.486,0,0,1,3.644,3.32c.005.1.005.2,0,.295.038,1.4,0,2.794,0,4.19v3.63a8.531,8.531,0,0,1-.106,1.093,3.288,3.288,0,0,1-3.465,3.1l-.027,0" transform="translate(151.691 6011.839)" fill="#f1f4ea"/></g></svg>