<svg xmlns="http://www.w3.org/2000/svg" width="19.517" height="18.722" viewBox="0 0 19.517 18.722"><path d="M56.069,17.809v7.237H51.88V18.3c0-1.7-.606-2.852-2.129-2.852A2.287,2.287,0,0,0,47.6,16.977,2.866,2.866,0,0,0,47.464,18v7.073h-4.2s.055-11.433,0-12.573h4.2V14.21a4.165,4.165,0,0,1,3.779-2.081c2.758,0,4.826,1.8,4.826,5.673ZM38.867,6.353a2.185,2.185,0,0,0-.262,4.361,2.23,2.23,0,0,0,.262,0,2.185,2.185,0,1,0,.262-4.361,2.229,2.229,0,0,0-.262,0M36.761,25.047H40.95V12.473H36.761Z" transform="translate(-36.552 -6.349)" fill="#f1f4ea"/></svg>