<?xml version="1.0" encoding="UTF-8"?> <svg xmlns="http://www.w3.org/2000/svg" xmlns:xlink="http://www.w3.org/1999/xlink" width="199.94" height="199.94" viewBox="0 0 199.94 199.94"><defs><clipPath id="a"><rect width="199.94" height="199.94" fill="none"></rect></clipPath></defs><g clip-path="url(#a)"><path d="M199.94,99.97A99.97,99.97,0,1,1,99.97,0a99.97,99.97,0,0,1,99.97,99.97" fill="#ea8c9a"></path><path d="M36.164,66.763,25.33,59.831l1.839-2.874L38,63.889c2.3,1.474,4.518,1.026,5.92-1.163l.481-.752c1.4-2.19.879-4.389-1.425-5.862L32.144,49.181,34,46.284l10.834,6.931c3.763,2.407,4.8,6.219,2.49,9.822l-1.211,1.894c-2.305,3.6-6.184,4.239-9.947,1.832" fill="#fce170"></path><path d="M56.58,26.257l12.127,16.22L65.15,45.136,50.6,38.372l-1.8-.955L58.364,50.21l-2.732,2.043L43.505,36.033l3.555-2.659,14.3,6.65,2.029,1.086L53.826,28.316Z" fill="#fce170"></path><rect width="3.413" height="20.261" transform="translate(68.043 20.874) rotate(-21.297)" fill="#fce170"></rect><path d="M101.467,20.533l-3.362.973a5.319,5.319,0,0,0-5.638-3.789c-3.613.344-6,3.59-5.588,7.877.411,4.313,3.364,7.051,7.192,6.687a5.627,5.627,0,0,0,5.141-5.141l3.454,0a8.96,8.96,0,0,1-8.3,8.271C88.6,35.957,83.979,31.99,83.4,25.925c-.574-6.038,3.191-10.777,8.986-11.329a8.3,8.3,0,0,1,9.08,5.937" fill="#fce170"></path><path d="M110.91,24.859c1.688-5.8,6.9-8.879,12.438-7.267,5.511,1.6,8.262,6.974,6.568,12.8s-6.9,8.878-12.411,7.273c-5.538-1.611-8.289-6.981-6.595-12.8m7.465,9.814c3.614,1.053,6.983-1.125,8.187-5.26s-.471-7.779-4.085-8.832-7.009,1.119-8.212,5.253.47,7.78,4.11,8.839" fill="#fce170"></path><path d="M144.383,27.06l6.107,4.631c3.732,2.831,4.579,6.328,2.321,9.3a5.066,5.066,0,0,1-4.664,2.206,4.19,4.19,0,0,1-.543,4.346l-3.552,4.682-2.718-2.062,3.06-4.034a3.021,3.021,0,0,0-.674-4.488L139.836,38.7l-4.975,6.559L132.143,43.2Zm5.645,11.826c1.162-1.532.635-3.258-1.437-4.828l-3.322-2.52-3.6,4.746,3.322,2.52c2.071,1.571,3.875,1.613,5.036.082" fill="#fce170"></path><path d="M174.53,59.889,157.475,70.82l-2.4-3.741,7.795-14.034,1.083-1.723-13.452,8.622-1.841-2.873L165.718,46.14l2.4,3.739-7.663,13.79-1.229,1.946,13.452-8.622Z" fill="#fce170"></path><path d="M25.446,136.2l2.259,2.7a5.141,5.141,0,0,0-.881,6.725c1.16,1.8,3.087,2.586,4.52,1.66,4.233-2.732-5.372-10.619,1.341-14.953,2.821-1.821,6.43-.476,8.839,3.256a7.826,7.826,0,0,1-.878,10.076L38.4,142.89a4.656,4.656,0,0,0,.418-5.943c-1.219-1.889-2.81-2.6-4.083-1.78-3.732,2.409,5.677,10.39-1.332,14.915-3.1,2-6.879.83-9.332-2.971a8.27,8.27,0,0,1,1.371-10.91" fill="#fce170"></path><path d="M58.32,158.312,53.3,153.928,41.973,166.894l-2.568-2.244,11.331-12.967L45.72,147.3l2-2.283,12.6,11.01Z" fill="#fce170"></path><path d="M64.092,158.288l6.963,3.209c4.257,1.961,5.838,5.2,4.274,8.592a5.07,5.07,0,0,1-4.082,3.159,4.189,4.189,0,0,1,.406,4.363l-2.461,5.339-3.1-1.429,2.121-4.6a3.024,3.024,0,0,0-1.626-4.24l-4.428-2.04-3.446,7.478-3.1-1.429Zm8.062,10.338c.806-1.747-.081-3.318-2.442-4.407l-3.789-1.746-2.494,5.412,3.788,1.746c2.362,1.089,4.133.741,4.937-1" fill="#fce170"></path><path d="M89.583,167l3.6.438,5.757,21.1-3.656-.443-1.22-4.539-9.192-1.116L82.6,186.549l-3.655-.444Zm3.634,13.423-2.362-8.85-4.41,8.028Z" fill="#fce170"></path><path d="M118.629,168.825l-6.594.946,2.448,17.047-3.377.485-2.449-17.047-6.592.947-.431-3,16.563-2.379Z" fill="#fce170"></path><path d="M135.464,161.857l-8.716,3.855,2.158,4.879,8.147-3.6,1.227,2.773-8.147,3.6,2.355,5.323,8.716-3.855,1.227,2.773L130.6,182.841,122.4,164.32l11.835-5.236Z" fill="#fce170"></path><path d="M144.639,164.822c-3.953-4.6-3.61-10.643.784-14.418a8.334,8.334,0,0,1,10.881-.424l-2.185,2.733a5.333,5.333,0,0,0-6.831.193c-2.731,2.348-2.806,6.374,0,9.639,2.824,3.287,6.836,3.8,9.733,1.314,2.361-2.029,2.728-4.594,1.239-6.992l-3.2,2.753-1.854-2.156,5.978-5.135c4.386,4.69,4.465,9.976-.114,13.911-4.395,3.777-10.457,3.2-14.427-1.418" fill="#fce170"></path><path d="M169.594,140.931l6.869,4.439-1.851,2.866-6.871-4.439-13.891-.756,2.146-3.32,9.85.724-4.721-8.662,2.146-3.321Z" fill="#fce170"></path><path d="M40.31,105.333l-3.143,1.332L30.7,91.406l.282,3.441.479,14.24-3.34,1.418-9.774-10.211-2.308-2.669,6.471,15.259-3.141,1.332-7.91-18.651,4.712-2,12.239,12.9-.67-17.81L32.4,86.683Z" fill="#fce170"></path><path d="M71.485,67.765l3.616.323L81.525,89l-3.667-.328-1.367-4.5-9.225-.826-2.142,4.187-3.669-.327Zm4.06,13.306L72.9,72.3l-4.156,8.167Z" fill="#fce170"></path><path d="M86.123,130.367c-3.892-4.655-3.467-10.692.979-14.41a8.341,8.341,0,0,1,10.889-.278l-2.222,2.706a5.333,5.333,0,0,0-6.834.1c-2.764,2.311-2.894,6.338-.131,9.643,2.778,3.324,6.784,3.894,9.715,1.445,2.39-2,2.791-4.559,1.334-6.976l-3.241,2.71-1.824-2.183,6.046-5.055c4.326,4.752,4.333,10.04-.3,13.914-4.448,3.717-10.5,3.061-14.411-1.615" fill="#fce170"></path><path d="M186.647,98.437l-3.42-.744a5.32,5.32,0,0,0-3.157-6.016c-3.342-1.416-6.985.305-8.665,4.27-1.691,3.99-.4,7.8,3.145,9.305a5.628,5.628,0,0,0,6.97-2.075l3.04,1.641a8.962,8.962,0,0,1-11.235,3.328c-5.336-2.262-7.515-7.951-5.137-13.563,2.368-5.585,7.935-7.96,13.3-5.689a8.3,8.3,0,0,1,5.163,9.543" fill="#fce170"></path><rect width="20.259" height="3.413" transform="translate(128.559 99.855) rotate(-84.889)" fill="#fce170"></rect></g></svg> 