<?xml version="1.0" encoding="UTF-8"?> <svg xmlns="http://www.w3.org/2000/svg" xmlns:xlink="http://www.w3.org/1999/xlink" width="316.214" height="145.11" viewBox="0 0 316.214 145.11"><defs><clipPath id="a"><rect width="306" height="113.748" fill="none"></rect></clipPath></defs><g transform="matrix(0.995, -0.105, 0.105, 0.995, 31.476, -414.752)"><g transform="translate(-78 441)" clip-path="url(#a)"><path d="M265.317,90.7,50.27,113.491a45.475,45.475,0,0,1-9.587-90.443L255.73.257a45.473,45.473,0,1,1,9.587,90.44" transform="translate(0 0)" fill="#fff"></path><path d="M29.671,28.791l.138,1.272c1.265,11.735-3.229,17.8-9.643,18.488l2.471,22.9-8.481.915L7.829,13.7l8.375-.9c6.467-.7,12.2,4.263,13.467,15.995M19.9,41.072c1.378-.15,2.18-1.666,1.776-5.412L20.523,24.986c-.4-3.746-1.513-5.055-2.891-4.908l-.529.056,2.264,20.993Z" transform="translate(16.691 27.145)" fill="#5827d5"></path><path d="M36.415,28.064l.138,1.272c1.265,11.735-3.229,17.8-9.643,18.488l2.471,22.9-8.481.915L14.573,12.972l8.375-.9c6.467-.7,12.2,4.263,13.467,15.995M26.64,40.345c1.378-.15,2.18-1.666,1.776-5.412L27.267,24.259c-.4-3.746-1.513-5.055-2.891-4.908l-.529.06L26.111,40.4Z" transform="translate(31.068 25.595)" fill="#5827d5"></path><path d="M30.912,11.022c6.624-.714,10.714,5.854,11.917,17.019l.489,4.526-8.058.868a42.689,42.689,0,0,1-1.187-7.022l-.57-5.3c-.179-1.625-.767-2.634-1.723-2.531S30.41,19.8,30.592,21.5l4.253,39.44c.182,1.7.827,2.7,1.782,2.6s1.315-1.212,1.14-2.841l-.611-5.653a42.813,42.813,0,0,1-.335-7.113l8.055-.871.526,4.88C46.609,63.1,44.015,70.387,37.388,71.1c-6.784.733-11.848-5.944-13.571-21.917L22.324,35.329c-1.723-15.973,1.8-23.574,8.588-24.307" transform="translate(46.669 23.385)" fill="#5827d5"></path><path d="M52.156,23.588l.144,1.34c.814,7.564-1.82,11.494-4.407,13.345l.075.708c3.129,1.165,6.583,4.369,7.416,12.074l.166,1.553c1.134,10.533-3.564,15.685-9.872,16.367l-8.534.918L30.821,11.226l8.375-.9c6.254-.673,11.876,3.226,12.96,13.264m-9.634,12.12c1.378-.15,2.18-1.666,1.776-5.412l-.839-7.773c-.4-3.746-1.51-5.058-2.888-4.911l-.529.06,1.951,18.093Zm2.781,25.8c1.378-.147,2.17-1.735,1.754-5.622l-.824-7.636c-.429-3.956-1.535-5.268-2.913-5.121l-.529.056,1.982,18.378Z" transform="translate(65.708 21.853)" fill="#5827d5"></path><path d="M59.159,23.545l.138,1.272c.723,6.715-.7,11.372-3.905,14.507l.075.7C59.012,42.079,60.2,45.167,61,51.588l.714,5.644c.6,5.083,1.112,7.316,2.051,9.076l.078.7-8.005.864A34.982,34.982,0,0,1,53.92,59L52.626,48.988c-.366-2.894-1.087-4.6-2.834-4.416l2.553,23.68-8.428.908L37.59,10.494l8.378-.9C52.858,8.85,58.132,14,59.159,23.545M49.529,37.165c1.431-.153,2.17-1.735,1.744-5.694L50.252,22c-.42-3.887-1.481-5.274-2.91-5.121l-.532.056L49,37.222Z" transform="translate(80.138 20.299)" fill="#5827d5"></path><path d="M58,8.55,68.225,66.083l.078.708-8.268.889L57.79,53.336l-3.395.363.868,14.494-7.419.8-.078-.7L45.494,9.9Zm-1.6,35.926L53.152,23.733l-.532.056,1.24,20.962Z" transform="translate(96.989 18.228)" fill="#5827d5"></path><rect width="8.638" height="59.007" transform="translate(160.136 26.224) rotate(-6.152)" fill="#5827d5"></rect><path d="M62.466,8.609l7.4,29.377.532-.056L66.493,8.173l7.9-.849,6.323,58.664-7.952.858L65.353,37.4l-.529.056,3.912,29.825-7.9.852L54.514,9.467Z" transform="translate(116.218 15.615)" fill="#5827d5"></path><path d="M61.51,8.376,76.778,6.728l.958,8.907-6.677.72L72.787,32.4l5.832-.626.952,8.832-5.832.63,2.681,24.88-8.588.927Z" transform="translate(131.133 14.344)" fill="#5827d5"></path><path d="M76.334,6.134c6.837-.739,11.954,5.932,13.677,21.908L91.5,41.895c1.723,15.976-1.857,23.58-8.694,24.319-6.784.73-11.954-5.932-13.677-21.908L67.639,30.454c-1.723-15.976,1.91-23.59,8.694-24.319M82,58.65c1.059-.113,1.422-1.225,1.24-2.922l-4.253-39.44c-.182-1.7-.774-2.706-1.832-2.59-1.008.106-1.425,1.225-1.243,2.922l4.253,39.44c.182,1.7.827,2.7,1.835,2.59" transform="translate(143.295 12.961)" fill="#5827d5"></path><path d="M83.857,5.323c6.84-.739,11.958,5.932,13.677,21.908l1.494,13.852c1.723,15.976-1.854,23.58-8.694,24.319-6.784.73-11.954-5.932-13.674-21.908l-1.5-13.852c-1.719-15.976,1.91-23.59,8.694-24.319m5.663,52.516c1.062-.116,1.422-1.225,1.24-2.922l-4.253-39.44c-.182-1.7-.774-2.706-1.832-2.593-1.008.11-1.425,1.228-1.24,2.922l4.25,39.443c.185,1.694.827,2.7,1.835,2.59" transform="translate(159.336 11.232)" fill="#5827d5"></path><path d="M104.224,26.526,105.6,39.251c1.754,16.255-1.973,23.449-9.449,24.257l-8.058.868L81.765,5.708l8.058-.868c7.473-.808,12.65,5.431,14.4,21.685M96.156,55.64c1.7-.185,2.28-1.748,1.961-4.717L94.38,16.291c-.319-2.969-1.221-4.375-2.919-4.19l-.476.05,4.695,43.54Z" transform="translate(174.316 10.174)" fill="#5827d5"></path></g></g></svg> 