<?xml version="1.0" encoding="UTF-8"?> <svg xmlns="http://www.w3.org/2000/svg" xmlns:xlink="http://www.w3.org/1999/xlink" width="270.048" height="141.188" viewBox="0 0 270.048 141.188"><defs><clipPath id="a"><rect width="265.603" height="131.999" fill="none"></rect></clipPath></defs><g transform="matrix(0.999, -0.035, 0.035, 0.999, 0, 9.269)"><g transform="translate(0 0.001)" clip-path="url(#a)"><path d="M265.6,87.553s-69.893,54.656-143.237,42.752S0,44.447,0,44.447,69.893-10.206,143.237,1.7,265.6,87.553,265.6,87.553" transform="translate(0 -0.002)" fill="#ea8b9a" fill-rule="evenodd"></path><path d="M34.389,8.6l-.6,19.31.4.064L39.669,9.443l7.24,1.16L41.582,43.8l-5.56-.894,2.893-16.479-.4-.064L33.463,42.5l-3.518-.564.248-16.906-.4-.064L27.382,41.525l-5.557-.891,5.326-33.2Z" transform="translate(41.944 14.289)" fill="#5827d5"></path><path d="M46.7,10.257,44.438,43.534l-.064.4-6.238-1,.789-8.245-2.562-.409-1.826,8.076-5.6-.9.064-.4L37.262,8.741ZM39.413,29.6l1.134-11.921-.4-.064L37.493,29.293Z" transform="translate(55.608 16.797)" fill="#5827d5"></path><path d="M53.548,20.491l-.114.722c-.611,3.8-2.454,6.089-5.344,7.223l-.064.4c2.261,1.756,2.612,3.658,2.107,7.313L49.7,39.363c-.424,2.884-.427,4.2-.035,5.326l-.064.4-6.039-.967a15.38,15.38,0,0,1,.094-5.2l.754-5.7c.222-1.645-.018-2.711-1.338-2.922L40.923,43.7l-6.361-1.023,5.326-33.2,6.32,1.014c5.2.836,8.207,4.6,7.34,10M44.14,26.2c1.078.172,1.893-.558,2.253-2.8l.859-5.359c.354-2.2-.19-3.147-1.271-3.322l-.4-.064-1.841,11.48Z" transform="translate(66.422 18.216)" fill="#5827d5"></path><path d="M45.4,10.363l6.32,1.014L49.48,24.064l.4.067L54.76,11.865l5.961.955-.064.4-6.32,15.357-.064.4,1.186,16.64-.064.4-6.159-.988-.7-12.546-.4-.061L46.394,44.575l-6.32-1.014Z" transform="translate(77.016 19.915)" fill="#5827d5"></path><path d="M62.894,13.169l-.8,5-5.44-.871-1.432,8.917,4.681.751-.8,5-4.681-.754-1.487,9.28,5.44.874-.8,5L45.649,44.456l5.324-33.2Z" transform="translate(87.73 21.635)" fill="#5827d5"></path><path d="M67.194,14.278l-.8,5-4-.64-4.523,28.2L51.39,45.8l4.523-28.2-3.962-.634.8-5Z" transform="translate(98.763 22.986)" fill="#5827d5"></path><rect width="33.622" height="6.564" transform="translate(161.672 70.63) rotate(-80.885)" fill="#5827d5"></rect><path d="M69.435,14.221l.45,17.385.4.067,2.186-16.964,5.961.955-5.326,33.2-6-.961-.447-17.426-.4-.064-2.194,17-5.958-.955,5.326-33.2Z" transform="translate(111.677 25.476)" fill="#5827d5"></path><path d="M76.4,14.552c5.04.809,6.89,5.128,5.92,11.167l-.453,2.84-6.042-.97a18.814,18.814,0,0,1,.321-4.053l.482-3c.149-.92-.117-1.578-.836-1.695-.76-.12-1.215.421-1.37,1.382l-3.53,22c-.152.961.111,1.619.871,1.738.719.117,1.175-.427,1.324-1.344l1.6-9.961,6.361,1.02L78.53,49.357l-3.638-.581-.371-3.056-.4-.064a3.862,3.862,0,0,1-4.64,2.58C65.519,47.6,63.3,43.262,64.6,35.183l1.516-9.438c1.373-8.561,5.128-12.02,10.288-11.194" transform="translate(123.435 27.737)" fill="#5827d5"></path><path d="M29.192,47.244l-.283,1.762c-.146.917.123,1.537.8,1.645.719.117,1.329-.362,1.543-1.683.356-2.238-.316-5.464-1.622-8.833l-.856-2.066C27.342,34.475,25.63,31.08,26.3,26.881c.7-4.359,3.863-6.682,8.342-5.963s6.644,3.854,5.858,8.733l-.511,3.2-5.56-.894a16.7,16.7,0,0,1,.278-3.769l.225-1.4c.14-.879-.131-1.5-.809-1.6-.722-.117-1.329.359-1.543,1.68-.327,2.039.368,4.614,1.68,7.942l.9,2.072c1.426,3.635,3.062,7.755,2.375,12.035-.707,4.4-3.828,6.729-8.348,6-4.479-.719-6.644-3.857-5.847-8.818l.564-3.518,5.56.891a16.727,16.727,0,0,1-.278,3.772" transform="translate(44.552 39.951)" fill="#5827d5"></path><path d="M45.129,23.721l-.8,5-4-.64L35.8,56.279l-6.478-1.04,4.523-28.2-3.959-.634.8-5Z" transform="translate(56.357 41.133)" fill="#5827d5"></path><path d="M52.253,33.266l-.114.719c-.611,3.8-2.454,6.089-5.344,7.229l-.064.4c2.261,1.759,2.612,3.661,2.107,7.313l-.432,3.214c-.421,2.884-.427,4.2-.035,5.326l-.061.4-6.042-.97a15.3,15.3,0,0,1,.1-5.2l.751-5.7c.222-1.648-.018-2.711-1.335-2.925l-2.15,13.4-6.361-1.02,5.326-33.2,6.32,1.014c5.2.836,8.207,4.6,7.34,10m-9.408,5.712c1.081.172,1.893-.558,2.253-2.8l.862-5.359c.354-2.2-.193-3.147-1.274-3.322l-.4-.064-1.841,11.48Z" transform="translate(63.933 42.767)" fill="#5827d5"></path><path d="M56.44,24.8,54.175,58.079l-.064.4-6.238-1,.789-8.245L46.1,48.826,44.273,56.9l-5.6-.9.064-.4L47,23.286ZM49.15,44.145l1.134-11.921-.4-.064L47.23,43.838Z" transform="translate(74.321 44.75)" fill="#5827d5"></path><path d="M60.946,26.259l-.8,5-4-.64-4.523,28.2-6.481-1.04,4.523-28.2-3.959-.634.8-5Z" transform="translate(86.756 46.011)" fill="#5827d5"></path><path d="M66.333,26.7l-.8,5-5.44-.871L58.66,39.75l4.681.754-.8,5-4.681-.754-1.487,9.28,5.44.874-.8,5L49.085,57.991l5.326-33.2Z" transform="translate(94.334 47.646)" fill="#5827d5"></path><path d="M66.065,25.877c5.04.809,6.89,5.125,5.923,11.164l-.456,2.84-6.039-.967a18.421,18.421,0,0,1,.321-4.053l.479-3c.149-.917-.114-1.578-.836-1.692-.76-.123-1.215.418-1.37,1.379l-3.53,22c-.152.961.111,1.619.871,1.741.719.114,1.177-.427,1.324-1.347l1.6-9.961L70.711,45,68.2,60.682,64.555,60.1l-.371-3.053-.4-.064a3.859,3.859,0,0,1-4.64,2.577c-3.959-.634-6.18-4.97-4.882-13.049l1.516-9.44c1.373-8.561,5.128-12.017,10.288-11.191" transform="translate(103.567 49.501)" fill="#5827d5"></path><path d="M76.666,28.832l-.064.4L68.908,48.8,66.9,61.32l-6.519-1.046,2.01-12.52L61.2,26.761l.064-.4,6.159.991-.105,11.386.4.064,3.424-10.855Z" transform="translate(116.039 50.659)" fill="#5827d5"></path></g></g></svg> 