<?xml version="1.0" encoding="UTF-8"?> <svg xmlns="http://www.w3.org/2000/svg" xmlns:xlink="http://www.w3.org/1999/xlink" width="220.234" height="40.439" viewBox="0 0 220.234 40.439"><defs><clipPath id="a"><rect width="220.234" height="40.439" fill="#f1f4ea"></rect></clipPath></defs><g transform="translate(-1279 -8127.605)"><g transform="translate(1279 8127.605)"><g transform="translate(0 0)" clip-path="url(#a)"><path d="M13.608,47.6C1.949,47.625.033,38.28.024,33.127L0,19.841l6.838-.012L6.861,32.6c.006,3.533,1.271,7.91,7.2,7.9,5.844-.011,7.122-4.392,7.116-7.925L21.155,19.8l6.808-.012.024,13.286C28,38.23,25.822,47.582,14.66,47.6Z" transform="translate(0 -13.025)" fill="#f1f4ea"></path><path d="M409.888,19.08l.037,20.573,15.107-.027.012,6.809-21.915.039-.049-27.382Z" transform="translate(-265.286 -12.557)" fill="#f1f4ea"></path><path d="M490.663,41.267l-13.178.024L475.536,46.3l-6.925.012,10.938-27.4,8.825-.016,11.678,27.361-7.334.013Zm-6.75-16.439L479.9,35.1l8.24-.015Z" transform="translate(-308.416 -12.435)" fill="#f1f4ea"></path><path d="M562.851,18.765l18.613-.034c6.224-.011,7.953,3,7.959,6.243v.515a5.4,5.4,0,0,1-3.438,5.343c1.491.476,4.679,2.089,4.687,6.874v.515c.008,4.343-1.944,7.88-8.986,7.892l-18.788.034Zm6.819,5.766.008,4.453,10.636-.019c1.9,0,2.365-1.108,2.363-2.212V26.68c0-1.141-.471-2.171-2.371-2.167Zm.018,10.268.01,5.373,11.221-.02a2.427,2.427,0,0,0,2.683-2.692v-.147c0-1.178-.443-2.539-2.693-2.535Z" transform="translate(-370.44 -12.328)" fill="#f1f4ea"></path><path d="M180.751,2.865a18.156,18.156,0,0,1,1.73,1.958,18.874,18.874,0,0,0-3.845-1.294,23.746,23.746,0,0,0-2.895-.325.146.146,0,0,0-.106.251c.186.179.458.44.78.743.5.473,1.1,1.047,1.59,1.571a20.075,20.075,0,0,0-3.446-.877,15.374,15.374,0,0,0-3.289-.135.146.146,0,0,0-.069.271,11.05,11.05,0,0,1,2.405,1.908,20.657,20.657,0,0,0-3.37-.446c-1.112-.068-2.3-.075-3.308-.045a.146.146,0,0,0-.068.272,16.045,16.045,0,0,1,2.484,1.872c-1.243.069-3.319.29-4.833.373a107.173,107.173,0,0,1-14.93-.483,59.633,59.633,0,0,0-6.062-.342,16.329,16.329,0,0,0-6.973,1.627c-4.4,1.806-6.038,2.808-9.661,3.314-3.365.47-6.906-1.608-10.5-1.665-5.266-.083-8.082,1.515-9.068,2.224a.146.146,0,0,0,.1.265,13.184,13.184,0,0,1,3.52-.051c-2.588.973-4.644,1.69-6.975,4.329a.148.148,0,0,0,.157.238,12.49,12.49,0,0,1,3.426-.654,24.408,24.408,0,0,1,5.349.3c-.006,0-1.961.814-3.136,1.251a.146.146,0,0,0,.019.279,19.946,19.946,0,0,0,6.7.673,31.777,31.777,0,0,0,7.074-1.508,12.589,12.589,0,0,1-1.787,2.045.146.146,0,0,0,.136.247c1.468-.368,5.712-1.669,8.3-4.9-.014,1.4-.391,9.165,10.5,12.818,2.455.7,6.39,2.543,7.562,4.971.4.826.789,1.219,1.715,1.18a23.856,23.856,0,0,1,5.02.187,7.911,7.911,0,0,1,2.729,1.09,1.39,1.39,0,0,1-1.646.271,1.2,1.2,0,0,0-1.615.554c-.467.642-1.511,1.9-2.105,2.614a.348.348,0,0,0,.246.572c1.022.061,2.924.089,3.794-.445a10.021,10.021,0,0,1,1.659-.725,12.737,12.737,0,0,0,2.126-1.611,1.866,1.866,0,0,0,2.354.758.868.868,0,0,1,.5.008c.537.225.463.564,1.522,1.644l.11.113a.525.525,0,0,0,.528.136l3.673-1.113a.37.37,0,0,0,.148-.619,7.168,7.168,0,0,0-3.46-2.222,11.392,11.392,0,0,1-2.552-1c.384-.246.81-.418,1.206-.625l1.583-1.213a32.1,32.1,0,0,1,4.275-.234c1.447-.041,4.692.906,5.765.356.9-.461,1.661-2.3,1.2-4.012a77.02,77.02,0,0,1-.547-8.3,10.388,10.388,0,0,1,3.766-5.238h0a6.975,6.975,0,0,1,3.036-1.052,3.606,3.606,0,0,1,1.7.171,5.891,5.891,0,0,0,3.517,1.392,1.994,1.994,0,0,1,1.16.249c1.016.711,4.042,2.509,5.422,2.474a1.422,1.422,0,0,0,.8-.339,13.4,13.4,0,0,0,1.116-1.238,1.356,1.356,0,0,0,.1-1.761c-1.109-1.764-3.175-3.537-4.262-5.313a2.1,2.1,0,0,1-.3-.674,5.533,5.533,0,0,0-.7-2.085l.007-.008L198.612.572a.358.358,0,0,0-.493-.506l-6.788,4.7h0l-1.067.75c-.97.657-2.855-.3-4.178-1.036a18.958,18.958,0,0,0-5.2-1.862.147.147,0,0,0-.131.249m-26.832,28.5c-2.209-1.6-2.124-5.752-4.12-7.848.787.293,1.778.5,2.4.733a27.642,27.642,0,0,0,9.345,1.4c.105,0,.21,0,.315.008,2.469.041,2.7.186,2.4,2.446v0c-.005.046-.01.093-.017.139l.005-.036c0,.011,0,.023,0,.034l-.034.252-.252,1.8h0a4.945,4.945,0,0,0-.582.085l-.13-.213c-.24-.391-.254-.57-.5-1a.923.923,0,0,0-.964-.49c-.329,0-2-.011-2.149-.011h-.787a.35.35,0,0,0-.291.548,11.334,11.334,0,0,0,.841,1.07c.126.143.252.287.378.431a13.16,13.16,0,0,0,2.2,2.157,1.293,1.293,0,0,0,.222.125h0c-.43.424-.779.869-1.21,1.215a20.81,20.81,0,0,0-3.743-1.846,17.587,17.587,0,0,1-3.318-1m19.193-1.45c-.834.068-2.934.552-4.59.818L172.639,26c.041.12.083.237.128.349.187.467.431,2.538.566,3.279a.242.242,0,0,1-.22.285" transform="translate(-68.393 0)" fill="#f1f4ea"></path></g></g></g></svg> 