<?xml version="1.0" encoding="UTF-8"?> <svg xmlns="http://www.w3.org/2000/svg" width="189.789" height="34.408" viewBox="0 0 189.789 34.408"><g transform="translate(0 0)"><path d="M1.093,13.877c-.056.056-.056.154-.154.168-.014-.1.042-.154.1-.224l.056.056" transform="translate(0.362 8.223)" fill="#fabc04"></path><path d="M7.165,17.716c-.056-.1,0-.168.056-.238l.056.056-.112.182" transform="translate(4.055 10.4)" fill="#e1c025"></path><path d="M7.67,4a6.278,6.278,0,0,1,1.483-2.35,5.809,5.809,0,0,1,9.136,1.357c1.4,2.546,2.882,5.036,4.323,7.555L29.83,23.124a5.783,5.783,0,1,1-10.115,5.61L13.364,17.71a1.268,1.268,0,0,0-.154-.224,2.276,2.276,0,0,1-.462-.686L8.076,8.7a5.793,5.793,0,0,1-.769-3.078A4.289,4.289,0,0,1,7.67,4" transform="translate(4.151 -0.002)" fill="#3c8bd9"></path><path d="M11.422,2.508a8.047,8.047,0,0,0-.266,1.539A6.044,6.044,0,0,0,12,7.335l4.6,7.96c.14.238.252.476.392.7l-2.532,4.351-3.54,6.1c-.056,0-.07-.028-.084-.07a.867.867,0,0,1,.056-.322A5.631,5.631,0,0,0,9.548,20.5,5.332,5.332,0,0,0,6.26,18.807a5.678,5.678,0,0,0-4.491,1.245c-.238.182-.392.448-.672.588a.093.093,0,0,1-.1-.07l2-3.484L11.325,2.662c.028-.056.07-.1.1-.154" transform="translate(0.399 1.489)" fill="#fabc04"></path><path d="M1.578,14.583l.8-.713a5.783,5.783,0,0,1,9.247,3.512,6.149,6.149,0,0,1-.224,2.98,1.463,1.463,0,0,1-.056.238c-.126.224-.238.462-.378.686a5.625,5.625,0,0,1-5.484,2.924A5.743,5.743,0,0,1,.179,19.2a5.6,5.6,0,0,1,.769-3.721c.14-.252.308-.476.462-.727.07-.056.042-.168.168-.168" transform="translate(-0.123 7.518)" fill="#34a852"></path><path d="M12.438,98.082a12.17,12.17,0,1,0,0,24.335,11.214,11.214,0,0,0,8.532-3.425,11.951,11.951,0,0,0,2.7-9.854H12.438v3.3h7.991a7,7,0,0,1-1.8,4.206,8.278,8.278,0,0,1-6.189,2.464,8.833,8.833,0,0,1,0-17.665,8.255,8.255,0,0,1,6.009,2.4l2.343-2.343A11.534,11.534,0,0,0,12.438,98.082Zm20.369,8.712a7.932,7.932,0,1,0,7.811,7.931,7.748,7.748,0,0,0-7.811-7.931m0,12.738a4.827,4.827,0,1,1,4.386-4.807,4.556,4.556,0,0,1-4.386,4.807m16.944-12.738a7.932,7.932,0,1,0,7.811,7.931,7.712,7.712,0,0,0-7.811-7.931m0,12.738a4.827,4.827,0,1,1,4.386-4.807,4.556,4.556,0,0,1-4.386,4.807m16.884-12.738a7.851,7.851,0,0,0,0,15.682,5.251,5.251,0,0,0,4.086-1.8h.12v1.142c0,3-1.562,4.627-4.146,4.627a4.287,4.287,0,0,1-3.906-2.764l-3,1.262a7.369,7.369,0,0,0,6.91,4.627c4.026,0,7.391-2.4,7.391-8.172v-14.06H70.841V108.6h-.12a5.251,5.251,0,0,0-4.086-1.8m.3,12.618a4.492,4.492,0,0,1-4.326-4.747,4.547,4.547,0,0,1,4.326-4.807c2.343,0,4.146,2.043,4.146,4.807s-1.8,4.747-4.146,4.747m9.674-20.369h3.425v23.193H76.609V99.044Zm12.618,7.751c-4.086,0-7.511,3.185-7.511,7.931a7.761,7.761,0,0,0,7.871,7.931,7.856,7.856,0,0,0,6.609-3.485l-2.7-1.8a4.541,4.541,0,0,1-3.906,2.163,3.935,3.935,0,0,1-3.845-2.4l10.635-4.386-.361-.9c-.661-1.742-2.7-5.047-6.79-5.047m-4.086,7.691a4.35,4.35,0,0,1,4.146-4.627,3,3,0,0,1,2.944,1.682l-7.09,2.944Z" transform="translate(40.685 -95.159)" fill="#757575"></path><path d="M64.183,120.867l7.931-21.09h3.064l7.931,21.09h-3l-2.043-5.708H69.23l-2.043,5.708h-3Zm5.948-8.232h7.03l-3.425-9.494h-.12l-3.485,9.494Zm15.742,6.489a7.953,7.953,0,0,1-1.983-5.468,8.169,8.169,0,0,1,1.983-5.468,6.3,6.3,0,0,1,4.867-2.223,6.373,6.373,0,0,1,2.884.661,5,5,0,0,1,2.043,1.8h.12l-.12-1.983v-6.67h2.7v21.09H95.788v-1.983h-.12a5.473,5.473,0,0,1-2.043,1.8,5.984,5.984,0,0,1-2.884.661,6.208,6.208,0,0,1-4.867-2.223m8.532-1.682a5.995,5.995,0,0,0,0-7.511,4.371,4.371,0,0,0-6.489,0,5.91,5.91,0,0,0,0,7.451,4.292,4.292,0,0,0,3.245,1.442,3.886,3.886,0,0,0,3.245-1.382m16.464,2.584a7.107,7.107,0,0,1-7.991.18,6.433,6.433,0,0,1-2.343-3l2.4-1.021a4.456,4.456,0,0,0,1.562,2.043,3.776,3.776,0,0,0,2.223.721,4.128,4.128,0,0,0,2.163-.541,1.525,1.525,0,0,0,.841-1.322c0-.9-.721-1.622-2.1-2.043l-2.464-.6c-2.824-.721-4.206-2.043-4.206-4.086a3.823,3.823,0,0,1,1.622-3.185,6.855,6.855,0,0,1,4.086-1.2,7,7,0,0,1,3.485.9,5.049,5.049,0,0,1,2.163,2.464l-2.4,1.021a3.4,3.4,0,0,0-1.322-1.442,4.059,4.059,0,0,0-2.1-.541,3.574,3.574,0,0,0-1.923.541,1.578,1.578,0,0,0-.841,1.322c0,.841.781,1.442,2.343,1.742l2.163.541c2.884.721,4.266,2.163,4.266,4.326a3.748,3.748,0,0,1-1.622,3.185" transform="translate(77.293 -94.23)" fill="#757575"></path></g></svg> 