<?xml version="1.0" encoding="UTF-8"?> <svg xmlns="http://www.w3.org/2000/svg" width="54.395" height="54.396" viewBox="0 0 54.395 54.396"><g transform="translate(0 0)"><path d="M0,27.2A27.2,27.2,0,0,0,16.28,52.109a23.9,23.9,0,0,1,.473-6.245c.523-2.208,3.5-14.82,3.5-14.82a10.448,10.448,0,0,1-.869-4.3c0-4.031,2.336-7.041,5.245-7.041,2.474,0,3.669,1.858,3.669,4.083,0,2.487-1.586,6.207-2.4,9.652a4.209,4.209,0,0,0,4.293,5.238c5.153,0,8.624-6.619,8.624-14.46,0-5.961-4.015-10.423-11.317-10.423-8.25,0-13.39,6.153-13.39,13.025A7.852,7.852,0,0,0,15.9,32.15a1.318,1.318,0,0,1,.391,1.516c-.13.5-.43,1.705-.554,2.183a.937.937,0,0,1-1.362.681c-3.8-1.551-5.57-5.713-5.57-10.391,0-7.726,6.516-16.99,19.438-16.99,10.384,0,17.218,7.514,17.218,15.58,0,10.669-5.932,18.64-14.675,18.64-2.936,0-5.7-1.587-6.644-3.39,0,0-1.579,6.266-1.913,7.477a22.774,22.774,0,0,1-2.737,5.826A27.2,27.2,0,1,0,0,27.2Z" transform="translate(0 0)" fill="#cb1f27"></path></g></svg> 