<?xml version="1.0" encoding="UTF-8"?> <svg xmlns="http://www.w3.org/2000/svg" width="124.458" height="34.433" viewBox="0 0 124.458 34.433"><path d="M100.649,52.179c-1.2-2.3-2.587-4.714-5.323-4.714a3.489,3.489,0,0,0-1.523.3l-.92-1.857a8.091,8.091,0,0,1,5.306-1.736c3.65,0,5.53,1.759,7.013,4.007a18.752,18.752,0,0,0,1.3-7.714c0-8.013-2.506-12.072-8.364-12.072-5.771,0-8.26,4.116-8.26,12.072s2.495,12.049,8.2,12.049A8.91,8.91,0,0,0,100.6,52.2Zm1.437,2.8a15.348,15.348,0,0,1-3.943.529A15.088,15.088,0,1,1,113.4,40.464a14.645,14.645,0,0,1-5.76,11.761c1.1,1.65,2.3,2.748,3.817,2.748a2.49,2.49,0,0,0,2.529-2.38h2.3c.132,1.391-.563,7.174-6.9,7.174-3.794,0-5.748-2.2-7.318-4.788Zm16.268-7.645V37.027c0-1.173-.431-1.7-1.725-1.7h-1.437V32.6h9.37V47.144c0,2.46,1.334,3.547,3.363,3.547a4.583,4.583,0,0,0,4.231-2.414V37.027c0-1.173-.437-1.7-1.725-1.7h-1.523V32.6h9.468V47.891c0,1.523.563,2.219,2.3,2.219h.3v2.828l-8.467,1.345V51.369h-.172a8.878,8.878,0,0,1-7.231,3.346c-3.7,0-6.657-1.868-6.657-7.392Zm34.835,4.6c3.334,0,4.6-2.9,4.668-8.738.057-5.714-1.334-8.479-4.668-8.479-2.914,0-4.742,2.759-4.742,8.479C148.447,49.035,150.246,51.932,153.189,51.932Zm0,2.736a11.324,11.324,0,0,1-11.468-11.479c0-6.743,5.306-11.221,11.468-11.221,6.421,0,11.566,4.564,11.566,11.221A11.179,11.179,0,0,1,153.189,54.668Zm11.761-.437V51.489h.92c2.259,0,2.472-.65,2.472-2.61V37.027c0-1.173-.609-1.7-2-1.7h-1.219V32.6h8.594l.437,4.484h.172a6.405,6.405,0,0,1,5.921-4.915,3.234,3.234,0,0,1,3.535,3.42c0,1.592-.765,3.288-2.914,3.288-1.931,0-2.3-1.3-3.9-1.3-1.42,0-2.529,1.351-2.529,3.334v8.048c0,1.954.477,2.61,2.7,2.61h1.265v2.742H164.939Zm28.61-3.19c2.742,0,3.869-2.587,3.869-5.2V42.361c-2,2.069-6.651,2.144-6.651,5.84A2.584,2.584,0,0,0,193.56,51.041Zm4-.017c-1.132,2.173-3.449,3.639-6.7,3.639-3.771,0-6.208-2-6.208-5.518,0-7.088,9.87-5.2,12.761-9.9V38.74c0-3.61-1.42-4.173-2.989-4.173-4.392,0-2.391,4.725-6.438,4.725a2.382,2.382,0,0,1-2.7-2.489c0-2.667,3.19-4.829,9.174-4.829,5.668,0,9.2,1.564,9.2,7.2v9.117c0,1.391.506,2.144,1.725,2.144a2.08,2.08,0,0,0,1.288-.379l.724,1.765a5.949,5.949,0,0,1-5.174,2.529c-2.61,0-4.254-1.219-4.466-3.2h-.172Z" transform="translate(-82.938 -25.334)" fill="#b92b27"></path></svg> 