<?xml version="1.0" encoding="UTF-8"?> <svg xmlns="http://www.w3.org/2000/svg" width="117.6" height="34.056" viewBox="0 0 117.6 34.056"><path d="M276.168,76.308l-2.745,6.527a5.139,5.139,0,0,0-1.945-.368,5.277,5.277,0,0,0-2.313.562,4.767,4.767,0,0,0-2.594,4.452V99.435H259.74V76.175h6.637v3.264h.13a8.628,8.628,0,0,1,7.026-3.609,6.225,6.225,0,0,1,2.637.475Z" transform="translate(-259.74 -65.728)" fill="#ff4500"></path><path d="M325.84,87.88c0-6.722,4.605-12.04,11.5-12.04,6.246,0,10.721,4.562,10.721,10.982a13.972,13.972,0,0,1-.345,3.2H332.066a5.981,5.981,0,0,0,6.009,4.345,10.36,10.36,0,0,0,5.577-1.664l2.119,5.1a14.333,14.333,0,0,1-7.608,1.988c-7.371,0-12.321-4.756-12.321-11.91Zm6.1-2.139h9.834a4.275,4.275,0,0,0-4.518-4.562c-2.811,0-4.713,1.815-5.318,4.562Z" transform="translate(-310.733 -65.736)" fill="#ff4500"></path><path d="M665.451,31.63A4.171,4.171,0,1,1,661.28,35.8,4.187,4.187,0,0,1,665.451,31.63Zm3.414,33.709h-6.831V42.079h6.831Z" transform="translate(-569.508 -31.63)" fill="#ff4500"></path><path d="M446.537,33.47,446.516,45.7h-.13a8.825,8.825,0,0,0-6.571-2.53c-6.55,0-10.895,5.275-10.895,11.953S432.984,67.1,439.6,67.1a8.689,8.689,0,0,0,7.069-3.113h.194v2.768h6.507V33.47Zm.325,27.744h-.226L445.11,59.63a5.472,5.472,0,0,1-3.936,1.584c-3.346,0-5.686-2.647-5.686-6.079s2.34-6.079,5.686-6.079,5.686,2.647,5.686,6.079Z" transform="translate(-390.254 -33.049)" fill="#ff4500"></path><path d="M560.687,33.47,560.666,45.7h-.13a8.825,8.825,0,0,0-6.571-2.53c-6.55,0-10.895,5.275-10.895,11.953S547.134,67.1,553.748,67.1a8.689,8.689,0,0,0,7.069-3.113h.194v2.768h6.507V33.47Zm.293,27.744h-.226l-1.524-1.584a5.472,5.472,0,0,1-3.936,1.584c-3.346,0-5.686-2.647-5.686-6.079s2.34-6.079,5.686-6.079,5.686,2.647,5.686,6.079Z" transform="translate(-478.315 -33.049)" fill="#ff4500"></path><path d="M712.6,56.012H717.6v5.814H712.6V79.271h-6.831V61.826H700.8V56.012h4.971V49.69H712.6Z" transform="translate(-599.996 -45.562)" fill="#ff4500"></path></svg> 