<?xml version="1.0" encoding="UTF-8"?> <svg xmlns="http://www.w3.org/2000/svg" xmlns:xlink="http://www.w3.org/1999/xlink" id="Group_807" data-name="Group 807" width="593.836" height="112.484" viewBox="0 0 593.836 112.484"><defs><clipPath id="clip-path"><rect id="Rectangle_973" data-name="Rectangle 973" width="593.836" height="112.484" transform="translate(0 0)" fill="none"></rect></clipPath></defs><g id="Group_806" data-name="Group 806" clip-path="url(#clip-path)"><path id="Path_1239" data-name="Path 1239" d="M18.687,80.444l57.778-33.81a67.873,67.873,0,0,1,68.611.031l23.363,13.7a67.875,67.875,0,0,0,68.53.079L261,46.429a67.874,67.874,0,0,1,68.209-.108l25.067,14.515a67.873,67.873,0,0,0,67.8.13l26.061-14.959a67.874,67.874,0,0,1,67.732.091l59.468,34.346" fill="none" stroke="#d4ddbf" stroke-miterlimit="10" stroke-width="74"></path><path id="Path_1240" data-name="Path 1240" d="M33.632,52.357,45.557,67.8l.353-.206L38.292,49.629l6.391-3.739L61.832,75.2l-4.908,2.871L48.6,63.362l-.353.207L54.663,79.39l-3.107,1.819L40.906,67.866l-.353.207L49.3,82.531,44.389,85.4,27.241,56.1Z" fill="#ea8c9a"></path><path id="Path_1241" data-name="Path 1241" d="M62.665,35.461,65.194,39.9l-4.835,2.752,4.512,7.928,4.16-2.367,2.529,4.444L67.4,55.029l4.694,8.248,4.836-2.751,2.528,4.444L68.864,71,52.07,41.49Z" fill="#ea8c9a"></path><path id="Path_1242" data-name="Path 1242" d="M86.732,26.058l1.507,4.887-5.317,1.638L85.61,41.3l4.574-1.41,1.507,4.887-4.574,1.41,2.8,9.07,5.317-1.639L96.737,58.5,85.087,62.1l-10-32.447Z" fill="#ea8c9a"></path><path id="Path_1243" data-name="Path 1243" d="M116.146,23.258l.1,5.113-4.091.08.56,28.841-6.628.128-.559-28.841-4.05.079-.1-5.114Z" fill="#ea8c9a"></path><path id="Path_1244" data-name="Path 1244" d="M159.405,35.373l-.164.375-12.462,17.19-5.125,11.735L135.543,62l5.125-11.735,4.139-20.825.164-.375,5.773,2.522L147.767,42.7l.375.164,6.089-9.751Z" fill="#ea8c9a"></path><path id="Path_1245" data-name="Path 1245" d="M174.535,44.107c4.554,2.668,5.36,7.928.686,15.905l-4.052,6.917c-4.673,7.976-9.655,9.845-14.208,7.178-4.517-2.646-5.359-7.927-.686-15.9l4.052-6.918c4.673-7.976,9.691-9.825,14.208-7.179M159.173,70.331c.706.413,1.334.07,1.83-.777L172.54,49.86c.5-.846.489-1.562-.217-1.976-.671-.393-1.334-.07-1.83.777L158.956,68.354c-.5.848-.453,1.584.217,1.977" fill="#ea8c9a"></path><path id="Path_1246" data-name="Path 1246" d="M184.121,82.914c.7.216,1.224-.224,1.464-1.006l8.383-27.337,6.179,1.9-7.412,24.169c-1.643,5.357-5.322,7.866-9.975,6.439-4.693-1.439-6.333-5.579-4.69-10.937l7.412-24.169,6.374,1.955-8.383,27.337c-.24.782-.056,1.437.648,1.653" fill="#ea8c9a"></path><path id="Path_1247" data-name="Path 1247" d="M218.814,62.2l.141.722c.748,3.814-.2,6.626-2.544,8.712l.08.4c2.756.877,3.753,2.557,4.549,6.195l.711,3.195c.607,2.883,1.059,4.128,1.826,5.062l.079.4-6.062,1.19a15.44,15.44,0,0,1-1.723-4.957l-1.278-5.669c-.363-1.639-.961-2.564-2.287-2.3L214.944,88.6l-6.383,1.252-6.535-33.321,6.343-1.244c5.219-1.024,9.382,1.495,10.445,6.915m-6.925,8.695c1.084-.213,1.6-1.189,1.16-3.438l-1.055-5.379c-.433-2.208-1.28-2.917-2.364-2.7l-.4.078,2.26,11.522Z" fill="#ea8c9a"></path><path id="Path_1248" data-name="Path 1248" d="M247.733,45.1l.367.639c1.935,3.37,1.941,6.339.394,9.066l.2.355c2.892-.057,4.377,1.213,6.3,4.4l1.7,2.8c1.5,2.534,2.331,3.567,3.358,4.2l.2.355L254.9,70a15.389,15.389,0,0,1-3.225-4.139L248.644,60.9c-.871-1.434-1.735-2.117-2.9-1.445l6.823,11.884-5.64,3.24L230.015,45.133l5.6-3.217c4.612-2.649,9.363-1.6,12.113,3.186m-3.758,10.461c.958-.551,1.133-1.642-.008-3.629l-2.729-4.754c-1.121-1.951-2.152-2.349-3.11-1.8l-.354.2,5.846,10.182Z" fill="#ea8c9a"></path><path id="Path_1249" data-name="Path 1249" d="M262.284,28.294c5-1.7,9.5,1.132,12.477,9.885l2.581,7.59c2.976,8.753,1.131,13.744-3.865,15.443-4.957,1.685-9.5-1.133-12.477-9.885l-2.581-7.591c-2.976-8.752-1.092-13.757,3.865-15.442m9.784,28.774c.774-.264.926-.963.609-1.893L265.33,33.566c-.316-.93-.863-1.392-1.637-1.129-.736.251-.926.963-.609,1.893l7.347,21.609c.316.93.9,1.379,1.637,1.129" fill="#ea8c9a"></path><path id="Path_1250" data-name="Path 1250" d="M297.915,23.158l3.756,33.47.008.409-6.379.131-.7-8.332-2.617.054-.36,8.354-5.726.117-.008-.409,2.379-33.6ZM294.164,43.69,293.14,31.643l-.41.008-.529,12.08Z" fill="#ea8c9a"></path><path id="Path_1251" data-name="Path 1251" d="M314.321,52.409l-.487,1.733c-.254.906-.055,1.557.614,1.745.709.2,1.376-.208,1.742-1.508.619-2.205.318-5.52-.6-9.05l-.622-2.172c-1.022-3.771-2.348-7.373-1.186-11.508,1.206-4.293,4.647-6.258,9.058-5.019s6.218,4.636,4.869,9.441l-.885,3.15-5.475-1.538a16.937,16.937,0,0,1,.714-3.751l.387-1.377c.244-.867.044-1.518-.626-1.707-.708-.2-1.375.209-1.74,1.509-.564,2.008-.165,4.67.767,8.161l.661,2.183c1.012,3.811,2.177,8.133.994,12.347-1.217,4.332-4.619,6.307-9.07,5.057-4.41-1.238-6.218-4.635-4.846-9.519l.973-3.466,5.474,1.538a16.867,16.867,0,0,1-.713,3.751" fill="#ea8c9a"></path><path id="Path_1252" data-name="Path 1252" d="M344.688,66.92l-.9,1.558c-.471.814-.439,1.494.163,1.842.636.37,1.384.14,2.06-1.028,1.148-1.982,1.679-5.268,1.663-8.915l-.063-2.259c-.054-3.906-.444-7.723,1.708-11.441,2.233-3.859,6.055-4.907,10.019-2.612s4.873,6.034,2.373,10.353l-1.64,2.832-4.92-2.849a16.918,16.918,0,0,1,1.622-3.456l.718-1.239c.45-.778.419-1.459-.183-1.807-.637-.369-1.385-.14-2.06,1.029-1.046,1.805-1.32,4.482-1.284,8.095l.1,2.279c.034,3.942.09,8.417-2.1,12.205-2.254,3.893-6.04,4.964-10.04,2.648-3.965-2.3-4.873-6.035-2.332-10.424l1.8-3.116,4.921,2.849a16.873,16.873,0,0,1-1.623,3.456" fill="#ea8c9a"></path><path id="Path_1253" data-name="Path 1253" d="M380.9,66.051l-.249.694c-2.3,6.39-7.073,8.064-11.731,6.389l-4.484,12.474-6.16-2.215L369.766,51.44l6.082,2.187c4.7,1.688,7.352,6.034,5.055,12.424m-10.142,3.18c1,.359,1.971-.161,2.7-2.2l2.09-5.813c.733-2.041.317-3.059-.684-3.42l-.385-.137-4.11,11.433Z" fill="#ea8c9a"></path><path id="Path_1254" data-name="Path 1254" d="M398.14,55.147l.547,5.085-5.532.6.976,9.072,4.76-.513.548,5.085-4.76.513,1.016,9.437,5.532-.6.548,5.085-12.123,1.3-3.635-33.763Z" fill="#ea8c9a"></path><path id="Path_1255" data-name="Path 1255" d="M407.437,49.8c4.541-2.352,8.674.023,11.646,5.764l1.2,2.325-5.523,2.86a18.662,18.662,0,0,1-2.172-3.482l-1.411-2.726c-.432-.835-1.042-1.211-1.7-.872s-.735,1.071-.283,1.943l10.5,20.274c.452.871,1.1,1.228,1.751.89s.7-1.053.266-1.889l-1.506-2.906a18.67,18.67,0,0,1-1.59-3.785l5.522-2.859,1.3,2.507c2.973,5.74,2.527,10.486-2.015,12.838-4.65,2.408-9.493.263-13.745-7.948L406,65.61c-4.252-8.211-3.209-13.4,1.441-15.813" fill="#ea8c9a"></path><rect id="Rectangle_971" data-name="Rectangle 971" width="6.628" height="33.955" transform="translate(420.751 42.549) rotate(-29.519)" fill="#ea8c9a"></rect><path id="Path_1256" data-name="Path 1256" d="M448.027,28.788l15.347,29.986.152.38L457.6,61.532,454,53.986l-2.429.976,2.616,7.942-5.316,2.134-.153-.379-9.651-32.274Zm3.749,20.536-5.217-10.909-.381.152,3.776,11.488Z" fill="#ea8c9a"></path><path id="Path_1257" data-name="Path 1257" d="M472.075,23.519,475.119,52.2l5.166-.548.54,5.085-11.757,1.248-3.584-33.765Z" fill="#ea8c9a"></path><rect id="Rectangle_972" data-name="Rectangle 972" width="33.957" height="6.628" transform="translate(486.939 57.104) rotate(-82.973)" fill="#ea8c9a"></rect><path id="Path_1258" data-name="Path 1258" d="M507.785,54.339l-.647,1.68c-.338.879-.2,1.545.449,1.8.686.264,1.388-.08,1.874-1.339.824-2.138.835-5.466.25-9.068l-.416-2.22c-.665-3.852-1.647-7.563-.1-11.572,1.6-4.161,5.215-5.8,9.49-4.147s5.758,5.2,3.963,9.857l-1.176,3.054-5.307-2.044a16.861,16.861,0,0,1,1.062-3.668l.515-1.337c.324-.84.187-1.507-.463-1.757-.686-.264-1.389.079-1.875,1.339-.75,1.947-.6,4.635,0,8.2l.454,2.236c.651,3.889,1.406,8.3-.169,12.387-1.617,4.2-5.19,5.848-9.5,4.186-4.276-1.647-5.757-5.2-3.933-9.934l1.294-3.36,5.306,2.045a16.835,16.835,0,0,1-1.062,3.668" fill="#ea8c9a"></path><path id="Path_1259" data-name="Path 1259" d="M547.922,45.4l-2.558,4.429-3.543-2.046L527.4,72.757l-5.741-3.314,14.426-24.979-3.508-2.026,2.558-4.429Z" fill="#ea8c9a"></path><path id="Path_1260" data-name="Path 1260" d="M546.112,75.2l-.9,1.559c-.47.815-.438,1.5.164,1.842.638.369,1.385.139,2.06-1.03,1.146-1.984,1.674-5.27,1.656-8.92l-.068-2.259c-.057-3.907-.45-7.725,1.7-11.446,2.231-3.861,6.052-4.915,10.02-2.623s4.879,6.031,2.384,10.354l-1.638,2.835-4.925-2.845a16.8,16.8,0,0,1,1.62-3.459l.716-1.24c.45-.78.417-1.459-.184-1.807-.638-.369-1.386-.139-2.06,1.03-1.045,1.808-1.315,4.486-1.275,8.1l.1,2.279c.038,3.943.1,8.42-2.091,12.211-2.251,3.9-6.036,4.972-10.04,2.659-3.968-2.292-4.88-6.031-2.343-10.425l1.8-3.117,4.926,2.844a16.985,16.985,0,0,1-1.619,3.459" fill="#ea8c9a"></path></g></svg> 