<?xml version="1.0" encoding="UTF-8"?> <svg xmlns="http://www.w3.org/2000/svg" width="166.296" height="48.455" viewBox="0 0 166.296 48.455"><path d="M64.5,27.208a19.031,19.031,0,0,0,11.1,3.551V22.8a11.242,11.242,0,0,1-2.331-.244V28.82a19.035,19.035,0,0,1-11.1-3.55V41.517A14.728,14.728,0,0,1,39.253,53.745,14.726,14.726,0,0,0,64.505,43.455V27.208Zm2.876-8.032a11.094,11.094,0,0,1-2.876-6.5V11.655H62.3a11.147,11.147,0,0,0,5.085,7.521ZM44.4,47.508a6.736,6.736,0,0,1,7.4-10.491v-8.14a14.858,14.858,0,0,0-2.33-.134v6.336A6.734,6.734,0,0,0,44.4,47.508Z" transform="translate(-32.725 -9.717)" fill="#ff004f"></path><path d="M41.135,25.27a19.035,19.035,0,0,0,11.1,3.55V22.553a11.144,11.144,0,0,1-5.894-3.377,11.147,11.147,0,0,1-5.085-7.521h-5.8v31.8a6.736,6.736,0,0,1-12.1,4.052,6.735,6.735,0,0,1,5.074-12.43V28.742a14.715,14.715,0,0,0-10.217,25A14.728,14.728,0,0,0,41.135,41.517V25.27Z" transform="translate(-11.687 -9.717)"></path><path d="M40.549,12.836V11.142a11.1,11.1,0,0,1-5.894-1.683A11.134,11.134,0,0,0,40.549,12.836ZM29.57,1.938q-.08-.454-.122-.914V0H21.436V31.8a6.739,6.739,0,0,1-9.765,5.99,6.737,6.737,0,0,0,12.1-4.052V1.938ZM16.745,19.026v-1.8a14.872,14.872,0,0,0-2.02-.137,14.716,14.716,0,0,0-8.2,26.943,14.715,14.715,0,0,1,10.217-25Z" fill="#00f2ea"></path><path d="M794.168,134.876a10.451,10.451,0,1,0,0-20.9h-1.587a10.451,10.451,0,1,1,0,20.9Z" transform="translate(-660.778 -95.021)" fill="#ff004f"></path><path d="M730.937,113.975H729.35a10.451,10.451,0,1,0,0,20.9h1.587a10.451,10.451,0,1,1,0-20.9Z" transform="translate(-599.278 -95.021)" fill="#00f2ea"></path><path d="M310.062,85.572v5.3h6.2v20.184h6.207V91.012h5.051l1.732-5.44H310.062Zm50.8,0v5.3h6.2v20.184h6.207V91.012h5.051l1.732-5.44H360.862Zm-30.451,3.006a3.03,3.03,0,1,1,3.028,3.006A3.017,3.017,0,0,1,330.412,88.578Zm0,5.154h6.06v17.321h-6.06Zm8.658-8.16v25.481h6.062v-6.584l1.876-1.719,5.916,8.447h6.494L350.9,98.885l7.649-7.445h-7.36l-6.06,6.012V85.572Zm65.376,0v25.481h6.063v-6.584l1.876-1.719L418.3,111.2H424.8l-8.516-12.311,7.649-7.445h-7.36l-6.062,6.012V85.572Z" transform="translate(-258.5 -71.342)"></path><path d="M739.038,134.876a10.451,10.451,0,1,0,0-20.9h-.144a10.451,10.451,0,1,0,0,20.9Zm-5.2-10.45a5.124,5.124,0,1,1,5.125,5.083A5.1,5.1,0,0,1,733.842,124.426Z" transform="translate(-607.235 -95.021)"></path></svg> 