<?xml version="1.0" encoding="UTF-8"?> <svg xmlns="http://www.w3.org/2000/svg" xmlns:xlink="http://www.w3.org/1999/xlink" width="130.901" height="29.223" viewBox="0 0 130.901 29.223"><defs><clipPath id="a"><rect width="130.901" height="29.223" fill="none"></rect></clipPath></defs><g transform="translate(0 0)"><g transform="translate(0 0)" clip-path="url(#a)"><path d="M40.875,4.563A5.228,5.228,0,0,0,37.184.873C33.928,0,20.873,0,20.873,0S7.819,0,4.563.873A5.228,5.228,0,0,0,.872,4.563C0,7.819,0,14.612,0,14.612S0,21.4.872,24.66a5.229,5.229,0,0,0,3.691,3.691c3.256.872,16.31.872,16.31.872s13.055,0,16.31-.872a5.229,5.229,0,0,0,3.691-3.691c.873-3.256.873-10.048.873-10.048s0-6.793-.873-10.048" transform="translate(0 0)" fill="red"></path><path d="M48.594,36.821,59.44,30.56,48.594,24.3Z" transform="translate(-31.895 -15.948)" fill="#fff"></path><path d="M171.973,42.751a4.547,4.547,0,0,1-1.762-2.6,17,17,0,0,1-.522-4.687V32.809a15.406,15.406,0,0,1,.6-4.747,4.763,4.763,0,0,1,1.866-2.612,6.043,6.043,0,0,1,3.329-.821,5.676,5.676,0,0,1,3.254.836,4.79,4.79,0,0,1,1.791,2.612,16.025,16.025,0,0,1,.567,4.732v2.657a16.285,16.285,0,0,1-.553,4.7,4.616,4.616,0,0,1-1.791,2.6,7.343,7.343,0,0,1-6.777-.015m4.627-2.866a8.928,8.928,0,0,0,.343-2.926v-5.7a8.825,8.825,0,0,0-.343-2.881,1.229,1.229,0,0,0-1.209-.911,1.211,1.211,0,0,0-1.179.911,8.806,8.806,0,0,0-.343,2.881v5.7a9.291,9.291,0,0,0,.328,2.926,1.2,1.2,0,0,0,1.194.9,1.226,1.226,0,0,0,1.209-.9" transform="translate(-111.377 -16.166)" fill="#282828"></path><path d="M353.158,35.536v.925a24.315,24.315,0,0,0,.1,2.642,2.5,2.5,0,0,0,.433,1.284,1.232,1.232,0,0,0,1.015.4,1.278,1.278,0,0,0,1.269-.716,6.246,6.246,0,0,0,.373-2.388l3.553.209a5.592,5.592,0,0,1,.03.657,4.854,4.854,0,0,1-1.388,3.791A5.653,5.653,0,0,1,354.62,43.6q-3.045,0-4.269-1.911t-1.224-5.911V32.58q0-4.12,1.269-6.015t4.344-1.9a5.74,5.74,0,0,1,3.254.776,4.167,4.167,0,0,1,1.6,2.418,17.475,17.475,0,0,1,.463,4.538v3.135Zm.522-7.7a2.518,2.518,0,0,0-.418,1.269,24.7,24.7,0,0,0-.1,2.672v1.313h3.015V31.774a22.258,22.258,0,0,0-.119-2.672,2.555,2.555,0,0,0-.433-1.283,1.2,1.2,0,0,0-.97-.374,1.174,1.174,0,0,0-.97.388" transform="translate(-229.153 -16.192)" fill="#282828"></path><path d="M138.189,22.963,133.5,6.036h4.09l1.642,7.672q.627,2.837.926,4.836h.119q.209-1.433.925-4.806l1.7-7.7H147l-4.747,16.927v8.121h-4.06Z" transform="translate(-87.625 -3.962)" fill="#282828"></path><path d="M220.26,25.672v18.3h-3.224l-.358-2.239h-.089a4.215,4.215,0,0,1-3.941,2.537,3.1,3.1,0,0,1-2.687-1.194,6.41,6.41,0,0,1-.866-3.732V25.672h4.12V39.107a4.1,4.1,0,0,0,.269,1.746.929.929,0,0,0,.9.522,1.826,1.826,0,0,0,1.03-.329,2.03,2.03,0,0,0,.732-.836V25.672Z" transform="translate(-137.241 -16.85)" fill="#282828"></path><path d="M281.756,25.672v18.3h-3.224l-.358-2.239h-.089a4.215,4.215,0,0,1-3.941,2.537,3.1,3.1,0,0,1-2.687-1.194,6.41,6.41,0,0,1-.866-3.732V25.672h4.12V39.107a4.1,4.1,0,0,0,.269,1.746.929.929,0,0,0,.9.522,1.826,1.826,0,0,0,1.03-.329,2.031,2.031,0,0,0,.732-.836V25.672Z" transform="translate(-177.604 -16.85)" fill="#282828"></path><path d="M250.843,9.352h-4.09V31.085h-4.03V9.352h-4.09V6.038h12.21Z" transform="translate(-156.629 -3.963)" fill="#282828"></path><path d="M321.463,13.941a4.708,4.708,0,0,0-1.209-2.508,3.249,3.249,0,0,0-2.3-.776,3.811,3.811,0,0,0-2.12.642,4.36,4.36,0,0,0-1.523,1.687h-.03V3.343h-3.97V29.316h3.4l.418-1.732h.09a3.494,3.494,0,0,0,1.433,1.463,4.247,4.247,0,0,0,2.12.537,3.245,3.245,0,0,0,3.075-1.925,13.86,13.86,0,0,0,.985-6.016v-2.9a24.059,24.059,0,0,0-.373-4.807m-3.777,7.465a23.161,23.161,0,0,1-.164,3.135,3.387,3.387,0,0,1-.552,1.612,1.276,1.276,0,0,1-1.045.478,1.907,1.907,0,0,1-.94-.239,1.8,1.8,0,0,1-.7-.716V15.286A2.6,2.6,0,0,1,315,14.062a1.585,1.585,0,0,1,1.1-.477,1.114,1.114,0,0,1,.97.492,3.789,3.789,0,0,1,.478,1.657,30.876,30.876,0,0,1,.134,3.314Z" transform="translate(-203.677 -2.194)" fill="#282828"></path></g></g></svg> 